<svg width="342" height="343" viewBox="0 0 342 343" fill="none" xmlns="http://www.w3.org/2000/svg">
<circle cx="109" cy="54" r="7" fill="#A2D3E9"/>
<circle cx="133" cy="54" r="7" fill="#A2D3E9"/>
<circle cx="157" cy="54" r="7" fill="#A2D3E9"/>
<circle cx="181" cy="54" r="7" fill="#A2D3E9"/>
<circle cx="109" cy="78" r="7" fill="#A2D3E9"/>
<circle cx="133" cy="78" r="7" fill="#A2D3E9"/>
<circle cx="157" cy="78" r="7" fill="#A2D3E9"/>
<circle cx="181" cy="78" r="7" fill="#A2D3E9"/>
<circle cx="109" cy="102" r="7" fill="#A2D3E9"/>
<circle cx="133" cy="102" r="7" fill="#A2D3E9"/>
<circle cx="157" cy="102" r="7" fill="#A2D3E9"/>
<circle cx="181" cy="102" r="7" fill="#A2D3E9"/>
<path d="M238.534 0L196.876 147.208L147.756 72.3564V135.356L29 147.208L219.881 252L269 123.505L238.534 0Z" fill="#ECE53B"/>
<path d="M0 148L138 225.854L24.84 262L77.28 225.854L0 148Z" fill="#A2D3E9"/>
<path d="M179.178 281.4L207.372 208.445L304.997 204.525L233.044 261.186L270.047 308.176L179.178 281.4Z" fill="white"/>
<circle cx="162" cy="303" r="7" transform="rotate(-90 162 303)" fill="white"/>
<circle cx="162" cy="279" r="7" transform="rotate(-90 162 279)" fill="white"/>
<circle cx="162" cy="255" r="7" transform="rotate(-90 162 255)" fill="white"/>
</svg>
