<?xml version="1.0" encoding="UTF-8"?>
<svg id="Layer_1" data-name="Layer 1" xmlns="http://www.w3.org/2000/svg" viewBox="0 0 150.78 26.35">
  <defs>
    <style>
      .cls-1 {
        fill: #174171;
        stroke-width: 0px;
      }
    </style>
  </defs>
  <path class="cls-1" d="M38.42,8.75h2.42l3.5,4.71c.76,1.02,1.47,2,2.2,3.02h.03c-.02-1.13-.03-2.26-.03-3.39v-4.34h2.47v11.69h-2.42l-3.5-4.71c-.76-1.02-1.47-2-2.2-3.02h-.03c.02,1.13.03,2.26.03,3.39v4.34h-2.47v-11.69Z"/>
  <path class="cls-1" d="M55.61,8.75h2.62l4.68,11.69h-2.75l-.95-2.45h-4.7l-.95,2.45h-2.63l4.68-11.69ZM58.45,15.97l-.47-1.26c-.36-.97-.78-2.13-1.07-3h-.03c-.32.92-.73,2.03-1.11,3.02l-.48,1.24h3.16Z"/>
  <path class="cls-1" d="M63.74,14.59c0-3.41,2.63-6.02,6.1-6.02s6.1,2.62,6.1,6.02-2.63,6.02-6.1,6.02-6.1-2.62-6.1-6.02ZM73.38,14.59c0-2.08-1.52-3.73-3.54-3.73s-3.54,1.65-3.54,3.73,1.52,3.73,3.54,3.73,3.54-1.65,3.54-3.73Z"/>
  <path class="cls-1" d="M78.37,8.75h2.47l3.47,4.94,3.47-4.94h2.44v11.69h-2.57v-4.68c0-.97.02-2.07.03-2.92h-.03c-.55.82-1.13,1.68-1.71,2.5l-1.7,2.41-1.69-2.41c-.58-.82-1.16-1.68-1.71-2.5h-.03c.02.86.03,1.95.03,2.92v4.68h-2.47v-11.69Z"/>
  <path class="cls-1" d="M93.15,8.75h2.57v11.69h-2.57v-11.69Z"/>
  <path class="cls-1" d="M109.12,20.61c-3.75,0-6.34-2.58-6.34-5.99s2.62-6.05,6.36-6.05c1.24,0,2.42.29,3.34.81v2.53c-.89-.63-2.07-1.05-3.24-1.05-2.29,0-3.88,1.6-3.88,3.71s1.55,3.75,3.97,3.75c1.19,0,2.34-.42,3.25-1.07v2.52c-.97.57-2.26.84-3.46.84Z"/>
  <path class="cls-1" d="M115,8.75h2.57v4.52h5.05v-4.52h2.57v11.69h-2.57v-4.92h-5.05v4.92h-2.57v-11.69Z"/>
  <path class="cls-1" d="M131.79,8.75h2.62l4.68,11.69h-2.75l-.95-2.45h-4.7l-.95,2.45h-2.63l4.68-11.69ZM134.63,15.97l-.47-1.26c-.36-.97-.78-2.13-1.07-3h-.03c-.32.92-.73,2.03-1.11,3.02l-.48,1.24h3.16Z"/>
  <path class="cls-1" d="M143.16,8.75v6.51c0,.84.11,1.58.55,2.15s1.1.9,2.02.9,1.58-.34,2.02-.9c.44-.56.56-1.31.56-2.15v-6.51h2.47v6.67c0,1.29-.27,2.6-1.13,3.58-.86.98-2.23,1.61-3.97,1.61s-3.12-.61-3.96-1.61c-.84-1-1.13-2.24-1.13-3.58v-6.67h2.57Z"/>
  <path class="cls-1" d="M8.11,19.78c1.34,0,3.17,0,5.07-.02v-5.6h-5.79c.02.65.04,1.25.06,1.71.22,1.29-1.23,3.74.66,3.91Z"/>
  <path class="cls-1" d="M9.85,20.91h-1.8c-1.25-.05-2.07-1.23-2.07-2.39-.32-1.13-.32-2.85-.27-4.37h-1.73v-.04c-.28.01-.57.01-.84.03C.35,15.16.42,18.97.8,21.44c.36,1.53.05,2.38-.43,3.69,0,0-.37,1.22-.37,1.22,0,0,1.12-.48,1.12-.48,1.95-1.03,3.92-.35,6.04-.25,1.86-.03,4.12-.05,5.49-1.51.05-.1.41-.7.46-.78.03-.51.05-1.03.07-1.54v-.86c-1.35-.01-2.56-.02-3.33-.02Z"/>
  <path class="cls-1" d="M5.92,8.78l.03-.89c-.07-1.15,1.01-2.34,2.21-2.28,0,0,2.93-.03,5.02-.05v-.93c-.02-.54-.04-1.09-.07-1.62-.06-.09-.4-.68-.46-.78-1.38-1.46-3.63-1.48-5.49-1.51-2.11.1-4.09.78-6.04-.25l-1.12-.48.37,1.22c.48,1.31.79,2.15.43,3.69-.38,2.47-.45,6.28,2.34,7.31.28.02.56.02.84.03h0s1.8-.01,1.8-.01c.02-.52.13-3.46.13-3.46Z"/>
  <path class="cls-1" d="M13.18,6.73c-1.88-.02-3.69-.03-5.02-.05-.39,0-.77.25-.92.61-.17.29-.02,1.13-.04,1.49.04.86.09,2.16.13,3.46h5.85v-5.5Z"/>
  <path class="cls-1" d="M21.4,14.17s0-.01,0-.02h-6.09v5.58c1.93-.02,3.8-.04,5.17-.05.99-.08.79-1.26.83-1.97l.09-3.54Z"/>
  <path class="cls-1" d="M28.14,25.13c-.48-1.31-.79-2.15-.43-3.69.38-2.47.45-6.28-2.34-7.31-.35-.02-.71-.02-1.07-.04v.05h-1.53s0,.01,0,.02l.09,3.54.02.89c.13,1.25-1.14,2.5-2.4,2.4-1.14-.01-3.15-.03-5.17-.05v.47c.03.64.05,1.28.09,1.91.06.09.4.68.46.78,1.38,1.46,3.63,1.48,5.49,1.51,2.11-.1,4.09-.78,6.04.25l1.12.48-.37-1.22Z"/>
  <path class="cls-1" d="M20.53,6.85c-1.37-.04-3.26-.07-5.22-.1v5.48h6.16c.05-1.49.07-3.15-.27-4.27-.01-.45-.05-1.1-.67-1.12Z"/>
  <path class="cls-1" d="M28.51,0s-1.12.48-1.12.48c-1.95,1.03-3.92.35-6.04.25-1.86.03-4.12.05-5.49,1.51-.05.1-.41.7-.46.78-.04.66-.07,1.33-.09,2.01v.52l3.48-.06,1.8-.03c1.04.04,2.2.82,2.36,1.95.07.49-.04.97-.15,1.45-.19.73-.16,2.13-.11,3.38h1.61v.02c.36-.01.72-.02,1.07-.04,2.79-1.02,2.72-4.84,2.34-7.31-.36-1.53-.05-2.38.43-3.69l.37-1.22Z"/>
</svg>